<!-- icon666.com - MILLIONS vector ICONS FREE --><svg id="Layer_1" viewBox="0 0 512 512" xmlns="http://www.w3.org/2000/svg" data-name="Layer 1"><path d="m512 266.894a96.659 96.659 0 0 1 -96.551 96.55h-98.849a16 16 0 0 1 0-32h98.849a64.623 64.623 0 0 0 64.551-64.55c0-16.69-6.344-31.994-17.864-43.091-14.527-13.993-35.96-20.884-61.988-19.9a16 16 0 0 1 -16.593-15.656c-1.34-64.391-54.845-116.776-119.274-116.776-32 0-61.555 12.226-83.233 34.426-23.749 24.321-36.319 59.165-35.392 98.113a16 16 0 1 1 -31.99.762 188.219 188.219 0 0 1 4.392-45.772 86.223 86.223 0 0 0 .165 172.445h77.177a16 16 0 1 1 0 32h-77.177a118.223 118.223 0 1 1 0-236.445c3.424 0 6.851.148 10.262.443a150.533 150.533 0 0 1 29.668-43.9c27.75-28.418 65.441-44.069 106.128-44.069a151.344 151.344 0 0 1 150.165 132.661c27.983 1.861 52.411 11.783 69.891 28.622 17.839 17.185 27.663 40.672 27.663 66.137zm-199.031 124.483a16 16 0 0 0 -22.576 1.514l-18.393 21.035v-137.555a16 16 0 0 0 -32 0v137.555l-18.393-21.035a16 16 0 1 0 -24.089 21.062l46.437 53.11a16 16 0 0 0 24.09 0l46.437-53.11a16 16 0 0 0 -1.513-22.576z"></path></svg>