<!-- icon666.com - MILLIONS vector ICONS FREE --><svg version="1.1" id="Layer_1" xmlns="http://www.w3.org/2000/svg" xmlns:xlink="http://www.w3.org/1999/xlink" x="0px" y="0px" viewBox="0 0 512 512" style="enable-background:new 0 0 512 512;" xml:space="preserve"><g><g><g><path d="M193.728,291.904c0.304-0.128,0.56-0.368,0.864-0.528c0.512-0.288,1.056-0.512,1.504-0.928 c0.112-0.096,0.144-0.224,0.24-0.336c0.096-0.096,0.224-0.128,0.304-0.224l22.704-25.024c2.976-3.264,2.72-8.336-0.544-11.296 c-3.264-2.96-8.304-2.72-11.296,0.544l-7.968,8.784C203.536,231.936,227.2,208,256,208c20.784,0,39.984,12.624,50.096,32.96 c1.984,3.968,6.8,5.616,10.72,3.6c3.968-1.968,5.568-6.768,3.6-10.72C307.584,208.032,282.896,192,256,192 c-38.08,0-69.104,31.984-72.592,72.56l-9.472-10.448c-2.976-3.264-8.032-3.52-11.296-0.544c-3.28,2.976-3.52,8.032-0.544,11.296 l22.704,25.024c0.08,0.096,0.208,0.128,0.304,0.224c0.096,0.096,0.144,0.24,0.24,0.32c0.448,0.416,0.976,0.64,1.488,0.928 c0.304,0.176,0.56,0.4,0.88,0.544c0.96,0.4,1.984,0.624,3.008,0.624C191.744,292.528,192.768,292.304,193.728,291.904z"></path><path d="M327.216,254.112c-0.096-0.096-0.224-0.144-0.32-0.224c-0.096-0.096-0.128-0.224-0.24-0.32 c-0.304-0.288-0.704-0.4-1.04-0.624c-0.448-0.288-0.864-0.608-1.36-0.8c-0.464-0.192-0.944-0.256-1.44-0.352 c-0.528-0.112-1.024-0.224-1.552-0.224c-0.48,0-0.928,0.112-1.408,0.208c-0.528,0.096-1.056,0.176-1.568,0.384 c-0.48,0.192-0.88,0.496-1.312,0.784c-0.352,0.224-0.752,0.352-1.072,0.64c-0.096,0.096-0.144,0.224-0.24,0.32 c-0.096,0.096-0.224,0.128-0.32,0.224l-22.704,25.024c-2.976,3.264-2.72,8.336,0.544,11.296c1.536,1.392,3.456,2.08,5.376,2.08 c2.176,0,4.336-0.896,5.92-2.624l7.968-8.784C308.464,312.064,284.8,336,256,336c-20.816,0-40.016-12.656-50.144-33.024 c-1.968-3.952-6.784-5.552-10.72-3.616c-3.968,1.968-5.584,6.768-3.616,10.736C204.368,335.936,229.072,352,256,352 c38.08,0,69.104-31.984,72.592-72.56l9.472,10.448c1.584,1.728,3.744,2.624,5.92,2.624c1.92,0,3.84-0.688,5.376-2.08 c3.28-2.976,3.52-8.032,0.544-11.296L327.216,254.112z"></path><path d="M457.408,264.56c0.176-2.96,0.256-5.776,0.256-8.56c0-97.04-80.32-176-179.024-176 c-72.304,0-137.36,43.056-165.04,108.16C49.12,197.136,0,248.64,0,309.328C0,376.976,60,432,133.728,432h289.808 C472.32,432,512,392.928,512,344.896C512,309.12,490.144,277.808,457.408,264.56z M423.552,400H133.728 C77.648,400,32,359.328,32,309.328c0-47.088,41.296-86.752,94.016-90.304c6.352-0.432,11.856-4.576,14-10.576 C160.656,150.768,216.352,112,278.64,112c81.072,0,147.024,64.592,147.024,144c0,5.328-0.4,11.008-1.264,17.872 c-1.024,8.144,4.272,15.728,12.256,17.584c25.52,5.936,43.344,27.904,43.344,53.44C480,375.28,454.672,400,423.552,400z"></path></g></g></g></svg>