<svg width="104" height="76" viewBox="0 0 104 76" fill="none" xmlns="http://www.w3.org/2000/svg">
<path d="M26.3334 75.3332C19.2556 75.3332 13.2092 72.8832 8.19408 67.9832C3.17586 63.0832 0.666748 57.0943 0.666748 50.0165C0.666748 43.9498 2.49453 38.5443 6.15008 33.7998C9.80564 29.0554 14.589 26.0221 20.5001 24.6998C22.4445 17.5443 26.3334 11.7498 32.1667 7.3165C38.0001 2.88317 44.6112 0.666504 52.0001 0.666504C61.1001 0.666504 68.8187 3.83517 75.1561 10.1725C81.4965 16.5129 84.6667 24.2332 84.6667 33.3332C90.0334 33.9554 94.487 36.2685 98.0274 40.2725C101.565 44.2796 103.333 48.9665 103.333 54.3332C103.333 60.1665 101.293 65.1256 97.2107 69.2105C93.1259 73.2923 88.1667 75.3332 82.3334 75.3332H26.3334Z" fill="#670099"/>
</svg>
