<!-- icon666.com - MILLIONS vector ICONS FREE --><svg id="Glyph_Icon" viewBox="0 0 64 64" xmlns="http://www.w3.org/2000/svg" data-name="Glyph Icon"><path d="m56.667 15.078h-11.123a3 3 0 0 0 -3 3v27.844a3 3 0 0 0 3 3h11.123a3 3 0 0 0 3-3v-27.844a3 3 0 0 0 -3-3zm-5.562 27.838a1.6 1.6 0 1 1 1.6-1.6 1.6 1.6 0 0 1 -1.6 1.6zm4.366-14.144h-8.733a1 1 0 0 1 0-2h8.733a1 1 0 0 1 0 2zm0-3.494h-8.733a1 1 0 0 1 0-2h8.733a1 1 0 0 1 0 2zm0-3.493h-8.733a1 1 0 0 1 0-2h8.733a1 1 0 0 1 0 2z"></path><path d="m7.334 44.023h11.833a13.065 13.065 0 0 1 -1.548 2.9h-6.907a1 1 0 0 0 0 2h23.857a1 1 0 0 0 0-2h-6.9a13 13 0 0 1 -1.552-2.9h11.83a3 3 0 0 0 3-3v-20.6a3 3 0 0 0 -3-3h-30.613a3 3 0 0 0 -3 3v20.6a3 3 0 0 0 3 3zm-1-23.6a1 1 0 0 1 1-1h30.613a1 1 0 0 1 1 1v18.91h-32.613z"></path></svg>