<!-- icon666.com - MILLIONS vector ICONS FREE --><svg id="Layer_1" enable-background="new 0 0 512 512" viewBox="0 0 512 512" xmlns="http://www.w3.org/2000/svg"><path clip-rule="evenodd" d="m76.74 75.283c0 12.979 18.978 25.509 49.659 35.275 33.016 10.508 78.825 17.008 129.6 17.008s96.585-6.5 129.6-17.008c30.681-9.765 49.659-22.295 49.659-35.275s-18.978-25.509-49.659-35.275c-33.015-10.508-78.824-17.008-129.599-17.008s-96.584 6.5-129.6 17.008c-30.682 9.765-49.66 22.295-49.66 35.275zm84.146 86.978c11.017 11.016 11.017 29.096 0 40.113-11.016 11.017-29.096 11.017-40.113 0-11.017-11.016-11.017-29.096 0-40.113s29.097-11.017 40.113 0zm-9.898 9.898c-5.578-5.578-14.739-5.578-20.316 0-5.578 5.578-5.578 14.739 0 20.316 5.578 5.578 14.739 5.578 20.316 0 5.579-5.577 5.579-14.738 0-20.316zm9.898 110.028c11.017 11.016 11.017 29.096 0 40.112-11.016 11.017-29.096 11.017-40.113 0-11.017-11.016-11.017-29.096 0-40.112 11.017-11.017 29.097-11.017 40.113 0zm-9.898 9.898c-5.578-5.578-14.739-5.578-20.316 0-5.578 5.578-5.578 14.739 0 20.316 5.578 5.578 14.739 5.578 20.316 0 5.579-5.578 5.579-14.739 0-20.316zm9.898 110.027c11.017 11.016 11.017 29.096 0 40.112-11.016 11.017-29.096 11.017-40.113 0-11.017-11.016-11.017-29.096 0-40.112 11.017-11.017 29.097-11.017 40.113 0zm-9.898 9.898c-5.578-5.578-14.739-5.578-20.316 0-5.578 5.578-5.578 14.739 0 20.316 5.578 5.578 14.739 5.578 20.316 0 5.579-5.577 5.579-14.738 0-20.316zm284.272-70.082c-12.618 10.775-29.757 17.877-45.448 22.875-34.397 10.948-81.719 17.719-133.811 17.719s-99.414-6.771-133.811-17.719c-15.592-4.958-32.987-12.234-45.448-22.875v94.79c0 12.98 18.978 25.509 49.659 35.275 33.015 10.507 78.824 17.007 129.599 17.007s96.584-6.5 129.6-17.008c30.681-9.765 49.659-22.295 49.659-35.275v-94.789zm-358.52-25.689c0 12.979 18.978 25.509 49.659 35.275 33.016 10.508 78.825 17.008 129.6 17.008s96.584-6.5 129.6-17.008c30.681-9.765 49.659-22.295 49.659-35.275v-94.79c-12.637 10.792-29.747 17.874-45.448 22.875-34.397 10.948-81.719 17.719-133.811 17.719s-99.414-6.771-133.811-17.719c-11.875-3.775-24.151-8.675-34.807-15.206-3.773-2.326-7.269-4.79-10.641-7.669zm0-120.478v-94.79c12.459 10.639 29.843 17.913 45.448 22.875 34.397 10.948 81.719 17.719 133.811 17.719 52.093 0 99.414-6.771 133.811-17.719 15.691-4.998 32.83-12.1 45.448-22.875v94.79c0 12.979-18.978 25.509-49.659 35.275-33.016 10.508-78.825 17.008-129.6 17.008s-96.585-6.5-129.6-17.008c-30.681-9.766-49.659-22.296-49.659-35.275z" fill-rule="evenodd"></path></svg>