<!-- icon666.com - MILLIONS vector ICONS FREE --><svg id="Icons" viewBox="0 0 60 60" xmlns="http://www.w3.org/2000/svg"><path d="m50.363 42.6a9.3 9.3 0 0 0 -7.538-8.007l-6.945-1.393a5.988 5.988 0 0 1 -1.42 2.8h6.54a3 3 0 0 1 3 3v15.278a1.993 1.993 0 0 1 1 1.722v2h4.812a2.206 2.206 0 0 0 2.17-2.455c-.001-.011-1.619-12.945-1.619-12.945z"></path><path d="m18 39v15h24v-15a1 1 0 0 0 -1-1h-22a1 1 0 0 0 -1 1zm16.293 4.707a1 1 0 0 1 1.414-1.414l3 3a1 1 0 0 1 0 1.414l-3 3a1 1 0 0 1 -1.414-1.414l2.293-2.293zm-6.263 6.051 2-8a1 1 0 1 1 1.94.484l-2 8a1 1 0 0 1 -.97.758 1.017 1.017 0 0 1 -.243-.03 1 1 0 0 1 -.727-1.212zm-6.737-4.465 3-3a1 1 0 0 1 1.414 1.414l-2.293 2.293 2.293 2.293a1 1 0 1 1 -1.414 1.414l-3-3a1 1 0 0 1 0-1.414z"></path><path d="m17 56h26.001v2h-26.001z"></path><path d="m33.865 32.977a8.664 8.664 0 0 1 -3.865 1.023 8.664 8.664 0 0 1 -3.865-1.023 3.982 3.982 0 0 0 7.73 0z"></path><path d="m37.24 18.349 2.12-1.435a2.122 2.122 0 0 0 -1.544-1.909 19.87 19.87 0 0 1 -7.6-2.605.4.4 0 0 0 -.216-.067.411.411 0 0 0 -.217.067 19.86 19.86 0 0 1 -7.6 2.605 2.122 2.122 0 0 0 -1.544 1.909l2.12 1.435a3.456 3.456 0 0 1 5.46-.024 5.037 5.037 0 0 1 3.56 0 3.456 3.456 0 0 1 5.46.024z"></path><circle cx="34.5" cy="20.5" r="1.5"></circle><path d="m19.6 21.6a1 1 0 0 1 .986.835l.46 2.747a5.515 5.515 0 0 0 2.342 3.658c.253.171.522.361.806.561 1.642 1.158 3.686 2.599 5.806 2.599s4.164-1.441 5.806-2.6c.284-.2.553-.39.806-.561a5.515 5.515 0 0 0 2.342-3.657l.46-2.748a1 1 0 0 1 .986-.834 1.6 1.6 0 0 0 .29-3.171l-2.714 1.836c.006.079.024.155.024.235a3.5 3.5 0 0 1 -7 0c0-.111.023-.215.033-.324a3.12 3.12 0 0 0 -2.066 0c.01.109.033.213.033.324a3.5 3.5 0 0 1 -7 0c0-.08.018-.156.024-.235l-2.714-1.836a1.6 1.6 0 0 0 .29 3.171z"></path><circle cx="25.5" cy="20.5" r="1.5"></circle><path d="m8.018 55.545a2.207 2.207 0 0 0 2.17 2.455h4.812v-2a1.993 1.993 0 0 1 1-1.722v-15.278a3 3 0 0 1 3-3h6.54a5.988 5.988 0 0 1 -1.42-2.8l-6.932 1.4a9.3 9.3 0 0 0 -7.551 8z"></path><path d="m18 16.785a3.453 3.453 0 0 1 .675-.264 4.066 4.066 0 0 1 3.227-3.5 17.872 17.872 0 0 0 6.818-2.318 2.386 2.386 0 0 1 2.559 0 17.867 17.867 0 0 0 6.821 2.322 4.066 4.066 0 0 1 3.227 3.5 3.453 3.453 0 0 1 .675.264v-2.789a12 12 0 0 0 -24 0z"></path></svg>