<svg width="112" height="112" viewBox="0 0 112 112" fill="none" xmlns="http://www.w3.org/2000/svg">
<path d="M93.3333 18.6667H18.6666C13.5333 18.6667 9.37992 22.8667 9.37992 28.0001L9.33325 84.0001C9.33325 89.1334 13.5333 93.3334 18.6666 93.3334H93.3333C98.4666 93.3334 102.667 89.1334 102.667 84.0001V28.0001C102.667 22.8667 98.4666 18.6667 93.3333 18.6667ZM91.4666 38.5001L58.4733 59.1267C56.9799 60.0601 55.0199 60.0601 53.5266 59.1267L20.5333 38.5001C20.0653 38.2374 19.6555 37.8825 19.3287 37.4569C19.0019 37.0312 18.7649 36.5437 18.6319 36.0238C18.499 35.5039 18.4729 34.9624 18.5553 34.4322C18.6377 33.9019 18.8268 33.3939 19.1112 32.9388C19.3956 32.4838 19.7694 32.0911 20.21 31.7847C20.6505 31.4783 21.1487 31.2645 21.6742 31.1561C22.1998 31.0478 22.7419 31.0473 23.2677 31.1545C23.7935 31.2618 24.2921 31.4746 24.7333 31.7801L55.9999 51.3334L87.2666 31.7801C87.7078 31.4746 88.2063 31.2618 88.7321 31.1545C89.2579 31.0473 89.8 31.0478 90.3256 31.1561C90.8512 31.2645 91.3493 31.4783 91.7899 31.7847C92.2304 32.0911 92.6042 32.4838 92.8886 32.9388C93.173 33.3939 93.3621 33.9019 93.4445 34.4322C93.5269 34.9624 93.5008 35.5039 93.3679 36.0238C93.235 36.5437 92.9979 37.0312 92.6711 37.4569C92.3443 37.8825 91.9345 38.2374 91.4666 38.5001Z" fill="#670099"/>
</svg>
