<!-- icon666.com - MILLIONS vector ICONS FREE --><svg id="Capa_1" enable-background="new 0 0 512 512" viewBox="0 0 512 512" xmlns="http://www.w3.org/2000/svg"><g><path d="m121.249 146.583c3.911 102.642 53.467 198.032 134.751 259.893 81.489-62.021 131.104-157.72 134.78-259.893-47.139-6.929-92.388-21.504-134.78-43.433-42.393 21.929-87.612 36.504-134.751 43.433zm220.356 60.249-100.605 100.606-55.605-55.605 21.211-21.211 34.394 34.394 79.395-79.395z"></path><path d="m479.286 60.729-15.542.557c-118.718 4.314-204.617-60.141-207.744-61.286-3.091 1.136-86.631 66.116-210 61.227h-15v73.14c0 267.382 221.99 374.629 225 377.633 66.012-37.684 225-151.164 225-377.634v-58.14zm-58.286 72.729c0 205.199-162.252 306.899-165 310.049-2.617-3-165-99.914-165-309.141v-13.374l13.286-2.432c88.186-10.184 146.132-47.013 151.714-49.423 5.641 2.436 61.816 39.041 151.714 49.424l13.286 1.523z"></path></g></svg>