<svg width="112" height="80" viewBox="0 0 112 80" fill="none" xmlns="http://www.w3.org/2000/svg">
<path d="M9.33333 79.1724C6.76667 79.1724 4.57022 78.2612 2.744 76.4386C0.914667 74.613 0 72.4195 0 69.858H18.6667C16.1 69.858 13.9036 68.9468 12.0773 67.1242C10.248 65.2986 9.33333 63.1051 9.33333 60.5436V9.3144C9.33333 6.75294 10.248 4.5594 12.0773 2.73378C13.9036 0.911258 16.1 0 18.6667 0H93.3333C95.9 0 98.098 0.911258 99.9273 2.73378C101.754 4.5594 102.667 6.75294 102.667 9.3144V60.5436C102.667 63.1051 101.754 65.2986 99.9273 67.1242C98.098 68.9468 95.9 69.858 93.3333 69.858H112C112 72.4195 111.087 74.613 109.261 76.4386C107.431 78.2612 105.233 79.1724 102.667 79.1724H9.33333ZM56 74.5152C57.3222 74.5152 58.4313 74.0681 59.3273 73.1739C60.2202 72.2829 60.6667 71.1776 60.6667 69.858C60.6667 68.5385 60.2202 67.4332 59.3273 66.5421C58.4313 65.6479 57.3222 65.2008 56 65.2008C54.6778 65.2008 53.5702 65.6479 52.6773 66.5421C51.7813 67.4332 51.3333 68.5385 51.3333 69.858C51.3333 71.1776 51.7813 72.2829 52.6773 73.1739C53.5702 74.0681 54.6778 74.5152 56 74.5152ZM18.6667 60.5436H93.3333V9.3144H18.6667V60.5436Z" fill="#670099"/>
</svg>
