<!-- icon666.com - MILLIONS vector ICONS FREE --><svg version="1.1" id="Layer_1" xmlns="http://www.w3.org/2000/svg" xmlns:xlink="http://www.w3.org/1999/xlink" x="0px" y="0px" viewBox="0 0 512 512" style="enable-background:new 0 0 512 512;" xml:space="preserve"><g><g><path d="M343.96,160.246c-26.251,0-47.608,21.357-47.608,47.609c0,26.251,21.358,47.609,47.608,47.609 c26.251,0,47.608-21.357,47.608-47.609C391.569,181.604,370.211,160.246,343.96,160.246z M343.96,224.117 c-8.966,0-16.262-7.295-16.262-16.262c0-8.967,7.295-16.262,16.262-16.262c8.966,0,16.262,7.294,16.262,16.262 C360.222,216.821,352.926,224.117,343.96,224.117z"></path></g></g><g><g><path d="M496.327,39.813H95.544c-8.656,0-15.673,7.018-15.673,15.673v64.197H15.673C7.018,119.684,0,126.701,0,135.357v321.155 c0,8.656,7.018,15.673,15.673,15.673h54.678c0.014,0,0.026,0.001,0.041,0.001c0.008,0,0.018-0.001,0.026-0.001h166.373 c0.014,0,0.026,0.001,0.041,0.001c0.008,0,0.018-0.001,0.026-0.001h179.596c8.656,0,15.673-7.018,15.673-15.673V410.36 c0-0.01,0-0.021,0-0.031v-18.014h64.198c8.656,0,15.673-7.018,15.673-15.673V55.486C512,46.831,504.982,39.813,496.327,39.813z M62.236,440.841H31.347v-25.252l58.315-82.998l24.105,34.482L62.236,440.841z M228.674,440.84H100.473l115.595-165.48 l64.11,91.712L228.674,440.84z M400.781,440.84H266.903l75.571-108.237l58.307,82.99V440.84z M400.783,361.065l-45.522-64.794 c-2.935-4.177-7.72-6.663-12.824-6.663c-0.007,0-0.016,0-0.023,0c-5.113,0.007-9.901,2.509-12.827,6.701l-30.295,43.39 l-70.381-100.682c-2.933-4.195-7.73-6.695-12.849-6.694c-5.118,0.001-9.914,2.501-12.846,6.698l-70.332,100.684L102.542,296.3 c-2.929-4.189-7.716-6.687-12.827-6.694c-0.006,0-0.013,0-0.019,0c-5.104,0-9.89,2.486-12.824,6.663l-45.525,64.793V151.031 h369.436V361.065z M432.128,360.968V135.357c0-8.656-7.017-15.673-15.673-15.673H111.217V71.16h369.436v289.809H432.128z"></path></g></g><g><g><path d="M154.607,190.66c-8.846-17.599-27.007-29.011-47.129-29.011s-38.284,11.413-47.13,29.011 c-12.329,7.277-20.215,20.725-20.215,35.417c0.001,22.655,18.433,41.087,41.088,41.087h52.514 c22.655,0,41.085-18.432,41.085-41.087C174.821,211.385,166.936,197.937,154.607,190.66z M133.738,235.817H81.222 c-5.372,0-9.74-4.37-9.74-9.74c0-4.156,2.485-7.745,6.33-9.144c4.436-1.613,7.907-5.141,9.451-9.601 c2.969-8.576,11.094-14.338,20.218-14.338c9.123,0,17.247,5.762,20.216,14.337c1.544,4.461,5.016,7.988,9.451,9.602 c3.845,1.399,6.33,4.988,6.33,9.144C143.476,231.448,139.108,235.817,133.738,235.817z"></path></g></g></svg>