<svg width="112" height="82" viewBox="0 0 112 82" fill="none" xmlns="http://www.w3.org/2000/svg">
<path d="M74.666 41C69.8687 41 65.2301 38.8614 61.5994 34.9804C58.0691 31.1949 55.9131 26.1468 55.5328 20.7702C55.1268 15.0349 56.8791 9.76079 60.4654 5.91704C64.0517 2.07329 69.066 0 74.666 0C80.2263 0 85.2546 2.11057 88.8293 5.94499C92.4389 9.81669 94.1959 15.0815 93.7899 20.7679C93.4002 26.1514 91.2466 31.1972 87.7233 34.9781C84.102 38.8614 79.4657 41 74.666 41ZM105.426 81.9999H43.9082C42.9191 82.0052 41.942 81.7839 41.0521 81.3529C40.1621 80.922 39.3831 80.293 38.7749 79.5143C38.1297 78.6701 37.6842 77.6912 37.4716 76.6507C37.2591 75.6103 37.285 74.5354 37.5475 73.5064C39.5122 65.6302 44.3795 59.0982 51.6221 54.6185C58.0504 50.6443 66.2334 48.4545 74.666 48.4545C83.2643 48.4545 91.2326 50.5511 97.6982 54.5229C104.957 58.9794 109.831 65.5487 111.787 73.5204C112.046 74.5501 112.069 75.625 111.854 76.6649C111.639 77.7048 111.192 78.6828 110.545 79.5259C109.938 80.301 109.161 80.927 108.273 81.3558C107.386 81.7846 106.412 82.005 105.426 81.9999ZM30.5662 41.9318C22.3553 41.9318 15.136 34.3095 14.4663 24.9424C14.135 20.1436 15.633 15.7058 18.6663 12.4514C21.667 9.22965 25.8996 7.45454 30.5662 7.45454C35.2329 7.45454 39.4329 9.23897 42.4498 12.4794C45.5065 15.7594 46.9998 20.1878 46.6498 24.9471C45.9802 34.3118 38.7632 41.9318 30.5662 41.9318ZM45.8868 49.2582C41.7825 47.2548 36.4555 46.2531 30.5686 46.2531C23.6946 46.2531 17.019 48.0422 11.769 51.2895C5.8167 54.9772 1.81273 60.3468 0.195734 66.8299C-0.0408999 67.7624 -0.0632813 68.7363 0.130264 69.6786C0.323809 70.621 0.72827 71.5075 1.31339 72.2717C1.8686 72.9833 2.57988 73.5583 3.39254 73.9525C4.20519 74.3466 5.09757 74.5495 6.00104 74.5454H31.9009C32.338 74.5453 32.7613 74.3921 33.0969 74.1124C33.4325 73.8327 33.6591 73.4443 33.7372 73.0149C33.7629 72.8681 33.7956 72.7213 33.8329 72.5769C35.8115 64.6425 40.4479 57.9381 47.2985 53.0507C47.5505 52.8694 47.7531 52.6281 47.8881 52.3488C48.0231 52.0695 48.0862 51.761 48.0716 51.4513C48.057 51.1415 47.9652 50.8403 47.8045 50.5749C47.6438 50.3095 47.4194 50.0883 47.1515 49.9314C46.7852 49.7171 46.3652 49.4911 45.8868 49.2582Z" fill="#670099"/>
</svg>
