<svg width="217" height="217" viewBox="0 0 217 217" fill="none" xmlns="http://www.w3.org/2000/svg">
<path d="M108.5 217C48.5755 217 0 168.425 0 108.5C0 48.5755 48.5755 0 108.5 0C168.425 0 217 48.5755 217 108.5C217 168.425 168.425 217 108.5 217ZM70.525 130.2V151.9H97.65V173.6H119.35V151.9H130.2C137.394 151.9 144.293 149.042 149.38 143.955C154.467 138.868 157.325 131.969 157.325 124.775C157.325 117.581 154.467 110.682 149.38 105.595C144.293 100.508 137.394 97.65 130.2 97.65H86.8C85.3612 97.65 83.9813 97.0784 82.9639 96.0611C81.9466 95.0437 81.375 93.6638 81.375 92.225C81.375 90.7862 81.9466 89.4063 82.9639 88.3889C83.9813 87.3716 85.3612 86.8 86.8 86.8H146.475V65.1H119.35V43.4H97.65V65.1H86.8C79.606 65.1 72.7067 67.9578 67.6197 73.0447C62.5328 78.1317 59.675 85.031 59.675 92.225C59.675 99.419 62.5328 106.318 67.6197 111.405C72.7067 116.492 79.606 119.35 86.8 119.35H130.2C131.639 119.35 133.019 119.922 134.036 120.939C135.053 121.956 135.625 123.336 135.625 124.775C135.625 126.214 135.053 127.594 134.036 128.611C133.019 129.628 131.639 130.2 130.2 130.2H70.525Z" fill="#670099"/>
</svg>
