<svg width="242" height="171" viewBox="0 0 242 171" fill="none" xmlns="http://www.w3.org/2000/svg">
<path d="M10.0833 171C7.22639 171 4.83328 170.034 2.904 168.103C0.968 166.178 0 163.791 0 160.941C0 158.091 0.968 155.704 2.904 153.779C4.83328 151.848 7.22639 150.882 10.0833 150.882H20.1667V20.1176C20.1667 14.5853 22.143 9.84759 26.0957 5.90453C30.0416 1.96818 34.7875 0 40.3333 0H201.667C207.212 0 211.962 1.96818 215.914 5.90453C219.86 9.84759 221.833 14.5853 221.833 20.1176V150.882H231.917C234.774 150.882 237.167 151.848 239.096 153.779C241.032 155.704 242 158.091 242 160.941C242 163.791 241.032 166.178 239.096 168.103C237.167 170.034 234.774 171 231.917 171H10.0833ZM105.875 150.882H136.125C137.469 150.882 138.646 150.379 139.654 149.374C140.662 148.368 141.167 147.194 141.167 145.853C141.167 144.512 140.662 143.338 139.654 142.332C138.646 141.326 137.469 140.824 136.125 140.824H105.875C104.531 140.824 103.354 141.326 102.346 142.332C101.337 143.338 100.833 144.512 100.833 145.853C100.833 147.194 101.337 148.368 102.346 149.374C103.354 150.379 104.531 150.882 105.875 150.882ZM40.3333 120.706H201.667V20.1176H40.3333V120.706Z" fill="#670099"/>
</svg>
